# xmcd
#
# Track frame offsets:
#	180
#	13835
#	28167
#	36837
#	45315
#	58520
#	70678
#	84481
#	96952
#	112097
#	124674
#	137061
#	150206
#	165237
#	176839
#	188871
#	201100
#	215001
#
# Disc length: 3024 seconds
#
# Revision: 0
# Processed by: cddbd v1.5.2PL0 Copyright (c) Steve Scherf et al.
# Submitted via: dBpowerAMP V4.0
#
DISCID=f20bce12
DTITLE=Various Artist - Gospel Vol. 2/Gospel Quartets/1921-1942 Disc 2
DYEAR=1993
DGENRE=Gospel
TTITLE0=Walk In The Light - Heavenly Gospel Singers
TTITLE1=Cheer The Weary Traveler - Heavenly Gospel Singers
TTITLE2=Pure Religion - Golden Gate Quartet
TTITLE3=When They Ring The Golden Bells - Golden Gate Quartet
TTITLE4=Take My Hand (Precious Lord) - Mitchell's Christian Singers
TTITLE5=Have You Heard About The World - Alphabetical Four
TTITLE6=He Knows Just How Much We Cn Bear - Selah Jubilee Singers
TTITLE7=I Saw The Light - Selah Jubilee Singers
TTITLE8=I Am In His Care - Gospel Light Jubilee Singers
TTITLE9=I Looked Down The Line - Dixie Hummingbirds
TTITLE10=My Lord Is Writing All The Time - Heavenly Gospel Singers
TTITLE11=Shady Green Pastures - Wright Brothers Gospel Singers
TTITLE12=He Never Said A Mumblin' World - Golden Gate Quartet
TTITLE13=Toll The Bells Easy - Golden Gate Quartet
TTITLE14=King Jesus Knows I'm Coming - Josh White and Carolinians
TTITLE15=Ezekiel Saw The Wheel - Charioteers
TTITLE16=One Day When The Lord Will Call Me - Southern Sons
TTITLE17=Lift Every Voice And Sing - Southern Sons
EXTD=
EXTT0=
EXTT1=
EXTT2=
EXTT3=
EXTT4=
EXTT5=
EXTT6=
EXTT7=
EXTT8=
EXTT9=
EXTT10=
EXTT11=
EXTT12=
EXTT13=
EXTT14=
EXTT15=
EXTT16=
EXTT17=
PLAYORDER=
